<?xml version="1.0" encoding="utf-8"?>
<!-- Generator: Adobe Illustrator 16.0.3, SVG Export Plug-In . SVG Version: 6.00 Build 0)  -->
<!DOCTYPE svg PUBLIC "-//W3C//DTD SVG 1.1//EN" "http://www.w3.org/Graphics/SVG/1.1/DTD/svg11.dtd">
<svg version="1.1" id="Layer_1" xmlns="http://www.w3.org/2000/svg" xmlns:xlink="http://www.w3.org/1999/xlink" x="0px" y="0px"
	 width="95.371px" height="48.043px" viewBox="0 0 95.371 48.043" enable-background="new 0 0 95.371 48.043" xml:space="preserve">
<polygon fill="rgba(255,255,255,0.07)" points="41.458,24.009 47.657,20.886 53.902,24.009 47.68,27.154 "/>
<path fill="rgba(255,255,255,0.07)" d="M47.68,27.283l-6.478-3.275l6.455-3.251l0.051,0.025l6.451,3.226L47.68,27.283z M41.714,24.009l5.966,3.017
	l5.965-3.017l-5.989-2.994L41.714,24.009z"/>
<path fill="rgba(255,255,255,0.07)" d="M47.68,32.866l-17.556-8.877l17.494-8.813l17.622,8.812L47.68,32.866z M33.198,23.991l14.482,7.322
	l14.478-7.319l-14.537-7.269L33.198,23.991z"/>
<path fill="rgba(255,255,255,0.07)" d="M47.68,40.297L15.375,23.963L47.569,7.745l32.425,16.214L47.68,40.297z M21.523,23.968L47.68,37.193
	l26.148-13.221L47.573,10.845L21.523,23.968z"/>
<path fill="rgba(255,255,255,0.07)" d="M47.68,48.043L0,23.935L47.512,0l47.859,23.93L47.68,48.043z M7.172,23.94L47.68,44.422l40.498-20.477
	L47.518,3.616L7.172,23.94z"/>
</svg>
