<svg xmlns="http://www.w3.org/2000/svg" width="95.371" height="48.043" viewBox="0 0 95.371 48.043"><path fill="rgba(255,255,255,0.07)" d="M41.458 24.009l6.199-3.123 6.245 3.123-6.222 3.145z"/><path fill="rgba(255,255,255,0.07)" d="M47.68 27.283l-6.478-3.275 6.455-3.251.051.025 6.451 3.226-6.479 3.275zm-5.966-3.274l5.966 3.017 5.965-3.017-5.989-2.994-5.942 2.994z"/><path fill="rgba(255,255,255,0.07)" d="M47.68 32.866l-17.556-8.877 17.494-8.813 17.622 8.812-17.56 8.878zm-14.482-8.875l14.482 7.322 14.478-7.319-14.537-7.269-14.423 7.266z"/><path fill="rgba(255,255,255,0.07)" d="M47.68 40.297L15.375 23.963 47.569 7.745l32.425 16.214L47.68 40.297zM21.523 23.968L47.68 37.193l26.148-13.221-26.255-13.127-26.05 13.123z"/><path fill="rgba(255,255,255,0.07)" d="M47.68 48.043L0 23.935 47.512 0l47.859 23.93L47.68 48.043zM7.172 23.94L47.68 44.422l40.498-20.477-40.66-20.329L7.172 23.94z"/></svg>