<svg xmlns="http://www.w3.org/2000/svg" width="392.291" height="76.759" viewBox="0 0 392.291 76.759"><path fill="#FFF" d="M4.896 38.052c0 5.47 5.34 10.572 13.761 13.454-1.682 8.462-.302 15.285 4.307 17.944 4.738 2.732 11.797.841 18.497-5.016 6.531 5.619 13.131 7.83 17.736 5.166 4.733-2.741 6.173-10.025 4.444-18.755 8.77-2.899 13.676-7.253 13.676-12.793 0-5.343-5.35-9.966-13.656-12.824 1.86-9.09.283-15.747-4.517-18.515-4.627-2.669-11.305-.342-17.931 5.424-6.894-6.121-13.505-7.99-18.301-5.214-4.622 2.677-5.942 9.623-4.255 18.244-8.136 2.836-13.761 7.562-13.761 12.885z"/><path fill="#53C1DE" d="M61.901 28.066a44.28 44.28 0 0 0-2.07-.652c.118-.477.225-.948.32-1.412 1.567-7.607.542-13.736-2.957-15.754-3.355-1.935-8.843.083-14.384 4.905a44.36 44.36 0 0 0-1.602 1.469 38.136 38.136 0 0 0-1.066-.983c-5.808-5.157-11.628-7.331-15.125-5.306-3.353 1.939-4.345 7.702-2.934 14.911.136.697.295 1.408.476 2.13-.823.235-1.619.484-2.38.75-6.81 2.374-11.158 6.095-11.158 9.954 0 3.986 4.668 7.984 11.76 10.407.56.194 1.141.374 1.739.544-.194.783-.364 1.55-.505 2.296-1.345 7.087-.294 12.711 3.048 14.638 3.454 1.994 9.249-.055 14.892-4.986a36.58 36.58 0 0 0 1.342-1.236 45.103 45.103 0 0 0 1.738 1.587c5.466 4.701 10.865 6.602 14.205 4.666 3.45-1.994 4.571-8.038 3.116-15.393a36.702 36.702 0 0 0-.386-1.717c.407-.12.807-.245 1.196-.374 7.374-2.443 12.171-6.395 12.171-10.433 0-3.874-4.488-7.62-11.436-10.011z"/><path fill="#FFF" d="M60.302 45.9c-.351.118-.713.229-1.08.338-.814-2.577-1.912-5.316-3.257-8.149 1.283-2.763 2.339-5.467 3.13-8.027.658.19 1.297.391 1.912.604 5.952 2.048 9.582 5.077 9.582 7.411 0 2.486-3.921 5.715-10.287 7.823zm-2.641 5.233c.644 3.252.736 6.192.31 8.491-.383 2.065-1.154 3.441-2.106 3.992-2.027 1.173-6.361-.354-11.036-4.376a38.208 38.208 0 0 1-1.618-1.474c1.812-1.98 3.624-4.288 5.392-6.845 3.109-.277 6.046-.727 8.71-1.341.131.529.248 1.048.348 1.553zm-26.713 12.28c-1.98.7-3.558.721-4.511.172-2.029-1.172-2.873-5.688-1.721-11.748.131-.694.288-1.408.469-2.135 2.635.582 5.551 1.001 8.667 1.253 1.779 2.504 3.644 4.808 5.521 6.823-.41.396-.819.772-1.225 1.128-2.496 2.181-4.996 3.728-7.2 4.507zM21.67 45.885c-3.136-1.073-5.726-2.464-7.501-3.985-1.595-1.367-2.4-2.722-2.4-3.823 0-2.342 3.491-5.328 9.315-7.358a38.803 38.803 0 0 1 2.214-.697c.804 2.618 1.86 5.355 3.134 8.124-1.29 2.807-2.36 5.589-3.174 8.236a30.322 30.322 0 0 1-1.588-.497zm3.11-21.169c-1.208-6.178-.406-10.837 1.614-12.006 2.152-1.246 6.91.531 11.925 4.982.32.286.642.583.964.892-1.869 2.006-3.715 4.291-5.479 6.78-3.024.28-5.921.73-8.583 1.333a41.381 41.381 0 0 1-.441-1.981zm27.743 6.85a86.298 86.298 0 0 0-1.956-3.216c2.052.259 4.018.604 5.864 1.025a58.82 58.82 0 0 1-2.059 5.538 92.553 92.553 0 0 0-1.849-3.347zM41.21 20.547a58.935 58.935 0 0 1 3.784 4.568 80.084 80.084 0 0 0-7.602-.001 61.175 61.175 0 0 1 3.818-4.567zM29.823 31.585a82.756 82.756 0 0 0-1.815 3.327 60.47 60.47 0 0 1-2.043-5.565 61.656 61.656 0 0 1 5.831-1.001 79.886 79.886 0 0 0-1.973 3.239zm2.031 16.42a58.6 58.6 0 0 1-5.927-.953 61.449 61.449 0 0 1 2.084-5.679 81.226 81.226 0 0 0 1.823 3.328h.001a79.397 79.397 0 0 0 2.019 3.304zm9.432 7.797a61.987 61.987 0 0 1-3.87-4.633 92.836 92.836 0 0 0 7.645-.012 58.679 58.679 0 0 1-3.775 4.645zm13.113-14.527a58.391 58.391 0 0 1 2.16 5.658 58.047 58.047 0 0 1-6 1.022 96.066 96.066 0 0 0 1.975-3.273 85.692 85.692 0 0 0 1.865-3.407zm-4.245 2.036a90.93 90.93 0 0 1-3.085 4.979 83.672 83.672 0 0 1-5.89.205c-2.001 0-3.948-.062-5.824-.182a79.085 79.085 0 0 1-3.144-4.987h.001a77.192 77.192 0 0 1-2.745-5.184 78.378 78.378 0 0 1 2.736-5.184l-.001.001a77.264 77.264 0 0 1 3.119-4.965 77.64 77.64 0 0 1 5.856-.219h.001c1.99 0 3.955.075 5.867.222a82.224 82.224 0 0 1 3.099 4.948 88.494 88.494 0 0 1 2.773 5.16 82.533 82.533 0 0 1-2.763 5.206zm5.668-30.684c2.154 1.242 2.992 6.251 1.639 12.82-.087.418-.184.847-.289 1.279-2.669-.616-5.567-1.075-8.6-1.359-1.768-2.517-3.599-4.805-5.437-6.786.494-.475.987-.928 1.479-1.355 4.748-4.132 9.187-5.764 11.208-4.599z"/><path fill="#53C1DE" d="M41.179 32.334a5.744 5.744 0 1 1 0 11.487 5.744 5.744 0 0 1 0-11.487"/><g><path fill="#FFF" d="M125.577 55.972h-8.164l-10.608-12.168H100.2v12.168h-6.864V19.519c5.772 0 11.544.052 17.316.052 8.581.052 13.104 5.772 13.104 12.064 0 4.992-2.288 10.036-9.204 11.44l11.024 12.429v.468zM100.2 25.967v11.648h10.452c4.368 0 6.24-2.912 6.24-5.824s-1.924-5.824-6.24-5.824H100.2zM133.323 45.415c.416 3.172 3.172 5.461 7.645 5.461 2.34 0 5.408-.885 6.864-2.393l4.056 4.004c-2.704 2.809-7.124 4.16-11.024 4.16-8.84 0-14.092-5.46-14.092-13.676 0-7.801 5.304-13.417 13.625-13.417 8.58 0 13.937 5.304 12.948 15.86h-20.022zm13.937-5.252c-.416-3.328-3.016-4.992-6.656-4.992-3.432 0-6.24 1.664-7.176 4.992h13.832z"/><path fill="#53C1DE" d="M178.563 30.335h6.085v25.637h-5.98l-.312-3.744c-1.456 3.016-5.46 4.473-8.32 4.524-7.592.052-13.208-4.628-13.208-13.625 0-8.84 5.876-13.469 13.364-13.416 3.432 0 6.708 1.612 8.164 4.16l.207-3.536zm-15.392 12.792c0 4.889 3.38 7.801 7.593 7.801 9.984 0 9.984-15.549 0-15.549-4.213 0-7.593 2.86-7.593 7.748z"/><path fill="#FFF" d="M212.571 52.695c-2.964 2.912-6.085 4.057-9.881 4.057-7.437 0-13.624-4.473-13.624-13.573 0-9.1 6.188-13.572 13.624-13.572 3.641 0 6.448 1.04 9.257 3.797l-4.004 4.212c-1.509-1.353-3.381-2.028-5.148-2.028-4.265 0-7.385 3.12-7.385 7.592 0 4.889 3.328 7.488 7.28 7.488 2.028 0 4.057-.571 5.616-2.132l4.265 4.159z"/><path fill="#53C1DE" d="M224.322 23.106v7.28h7.072v5.46h-7.125v11.076c0 2.444 1.352 3.641 3.328 3.641.988 0 2.133-.312 3.068-.78l1.768 5.408c-1.82.729-3.328 1.04-5.252 1.093-5.564.207-9.205-2.965-9.205-9.361V35.847h-4.783v-5.46h4.783v-6.604l6.346-.677zM261.605 43.179c0 7.385-5.043 13.365-13.363 13.365s-13.312-5.98-13.312-13.365c0-7.332 5.096-13.364 13.26-13.364s13.415 6.032 13.415 13.364zm-20.332 0c0 3.9 2.34 7.541 6.969 7.541 4.627 0 6.969-3.641 6.969-7.541 0-3.848-2.705-7.592-6.969-7.592-4.576 0-6.969 3.744-6.969 7.592zM283.029 55.972V42.243c0-3.38-1.77-6.448-5.252-6.448-3.434 0-5.461 3.068-5.461 6.448v13.729h-6.344v-25.69h5.875l.469 3.121c1.352-2.601 4.316-3.536 6.76-3.536 3.068 0 6.137 1.247 7.592 4.784 2.289-3.641 5.254-4.681 8.582-4.681 7.279 0 10.867 4.472 10.867 12.169v13.832h-6.344V42.14c0-3.381-1.404-6.24-4.836-6.24s-5.564 2.964-5.564 6.344v13.729h-6.344zM319.48 23.106c0 4.94-7.488 4.94-7.488 0s7.488-4.94 7.488 0zm-6.916 7.124v25.741h6.344V30.23h-6.344zM330.816 19.622v21.009l8.633-10.296h7.592v.363l-10.453 11.701 11.91 13.104v.468h-7.645l-10.037-11.597v11.597h-6.344v-36.35h6.344z"/><path fill="#FFF" d="M358.324 23.106c0 4.94-7.488 4.94-7.488 0s7.488-4.94 7.488 0zm-6.916 7.124v25.741h6.344V30.23h-6.344zM372.416 23.106v7.28h7.072v5.46h-7.123v11.076c0 2.444 1.352 3.641 3.328 3.641.986 0 2.131-.312 3.066-.78l1.77 5.408c-1.82.729-3.328 1.04-5.252 1.093-5.564.207-9.205-2.965-9.205-9.361V35.847h-4.785v-5.46h4.785v-6.604l6.344-.677z"/></g></svg>